<svg width="392" height="290" viewBox="0 0 392 290" fill="none" xmlns="http://www.w3.org/2000/svg">
<rect x="0.5" y="0.5" width="391" height="249" rx="15.5" fill="white"/>
<rect x="0.5" y="0.5" width="391" height="249" rx="15.5" stroke="#393953"/>
<path d="M129 159.26C129.375 161.763 131.786 164 135.403 164C140.359 164 142.315 160.725 142.315 157.129V145.439H138.886V146.983C138.43 146.105 137.225 145.199 135.135 145.199C131.518 145.199 129 148.128 129 151.59C129 155.265 131.625 157.955 135.135 157.955C137.037 157.955 138.27 157.129 138.805 156.277V157.236C138.805 159.766 137.546 160.884 135.296 160.884C133.608 160.884 132.456 159.846 132.215 158.408L129 159.26ZM135.751 154.919C133.903 154.919 132.59 153.641 132.59 151.59C132.59 149.566 133.983 148.288 135.751 148.288C137.466 148.288 138.859 149.566 138.859 151.59C138.859 153.614 137.573 154.919 135.751 154.919Z" fill="#6966FF"/>
<path d="M149.509 145.439H145.945V158.541H149.509V147.836C149.589 149.061 150.607 149.993 151.893 149.993C153.233 149.993 154.277 148.954 154.277 147.622C154.277 146.291 153.233 145.252 151.893 145.252C150.607 145.252 149.589 146.211 149.509 147.463V145.439Z" fill="#6966FF"/>
<path d="M155.634 154.972C155.634 157.023 157.348 158.914 160.161 158.914C162.117 158.914 163.376 158.008 164.046 156.97C164.046 157.476 164.099 158.195 164.18 158.541H167.448C167.368 158.088 167.288 157.156 167.288 156.464V150.019C167.288 147.383 165.734 145.039 161.554 145.039C158.018 145.039 156.116 147.303 155.902 149.353L159.063 150.019C159.17 148.874 160.027 147.889 161.581 147.889C163.081 147.889 163.805 148.661 163.805 149.593C163.805 150.046 163.564 150.419 162.814 150.525L159.572 151.005C157.375 151.324 155.634 152.629 155.634 154.972ZM160.911 156.277C159.759 156.277 159.197 155.532 159.197 154.759C159.197 153.747 159.92 153.241 160.831 153.108L163.805 152.656V153.241C163.805 155.558 162.412 156.277 160.911 156.277Z" fill="#6966FF"/>
<path d="M174.389 151.005C174.389 149.487 175.3 148.288 176.854 148.288C178.569 148.288 179.292 149.433 179.292 150.898V158.541H182.855V150.285C182.855 147.409 181.355 145.093 178.086 145.093C176.667 145.093 175.086 145.705 174.282 147.063V145.439H170.826V158.541H174.389V151.005Z" fill="#6966FF"/>
<path d="M191.002 141.524H187.787V143.362C187.787 144.533 187.144 145.439 185.751 145.439H185.081V148.581H187.465V154.679C187.465 157.209 189.073 158.727 191.645 158.727C192.689 158.727 193.332 158.541 193.654 158.408V155.478C193.466 155.532 192.984 155.585 192.555 155.585C191.537 155.585 191.002 155.212 191.002 154.067V148.581H193.654V145.439H191.002V141.524Z" fill="#6966FF"/>
<path d="M195.634 154.893C195.795 156.384 197.161 158.94 201.126 158.94C204.582 158.94 206.243 156.757 206.243 154.626C206.243 152.709 204.93 151.138 202.332 150.605L200.456 150.206C199.733 150.072 199.251 149.673 199.251 149.034C199.251 148.288 200.001 147.729 200.938 147.729C202.439 147.729 203.001 148.714 203.108 149.487L206.082 148.821C205.922 147.409 204.662 145.039 200.912 145.039C198.072 145.039 195.982 146.983 195.982 149.327C195.982 151.164 197.134 152.682 199.679 153.241L201.421 153.641C202.439 153.854 202.841 154.333 202.841 154.919C202.841 155.612 202.278 156.224 201.099 156.224C199.545 156.224 198.768 155.265 198.688 154.227L195.634 154.893Z" fill="#6966FF"/>
<path opacity="0.3" fill-rule="evenodd" clip-rule="evenodd" d="M233.375 91.4841C233.375 91.2397 233.175 91.0415 232.929 91.0415C232.683 91.0415 232.484 91.2397 232.484 91.4841V91.5121C232.484 91.7566 232.683 91.9548 232.929 91.9548C233.175 91.9548 233.375 91.7566 233.375 91.5121V91.4841ZM233.375 95.9945C233.375 95.7501 233.175 95.5519 232.929 95.5519C232.683 95.5519 232.484 95.7501 232.484 95.9945V96.0506C232.484 96.295 232.683 96.4932 232.929 96.4932C233.175 96.4932 233.375 96.295 233.375 96.0506V95.9945ZM233.375 100.533C233.375 100.289 233.175 100.09 232.929 100.09C232.683 100.09 232.484 100.289 232.484 100.533V100.589C232.484 100.833 232.683 101.032 232.929 101.032C233.175 101.032 233.375 100.833 233.375 100.589V100.533ZM233.375 105.071C233.375 104.827 233.175 104.629 232.929 104.629C232.683 104.629 232.484 104.827 232.484 105.071V105.099C232.484 105.344 232.683 105.542 232.929 105.542C233.175 105.542 233.375 105.344 233.375 105.099V105.071ZM233.375 127.463C233.375 127.218 233.175 127.02 232.929 127.02C232.683 127.02 232.484 127.218 232.484 127.463V127.493C232.484 127.737 232.683 127.935 232.929 127.935C233.175 127.935 233.375 127.737 233.375 127.493V127.463ZM233.375 132.276C233.375 132.032 233.175 131.834 232.929 131.834C232.683 131.834 232.484 132.032 232.484 132.276V132.336C232.484 132.58 232.683 132.779 232.929 132.779C233.175 132.779 233.375 132.58 233.375 132.336V132.276ZM233.375 137.119C233.375 136.875 233.175 136.677 232.929 136.677C232.683 136.677 232.484 136.875 232.484 137.119V137.179C232.484 137.424 232.683 137.622 232.929 137.622C233.175 137.622 233.375 137.424 233.375 137.179V137.119ZM233.375 141.963C233.375 141.718 233.175 141.52 232.929 141.52C232.683 141.52 232.484 141.718 232.484 141.963V142.022C232.484 142.267 232.683 142.465 232.929 142.465C233.175 142.465 233.375 142.267 233.375 142.022V141.963ZM233.375 146.806C233.375 146.561 233.175 146.363 232.929 146.363C232.683 146.363 232.484 146.561 232.484 146.806V146.836C232.484 147.08 232.683 147.278 232.929 147.278C233.175 147.278 233.375 147.08 233.375 146.836V146.806ZM263.481 116.91C263.481 117.154 263.281 117.352 263.035 117.352H263.009C262.763 117.352 262.563 117.154 262.563 116.91C262.563 116.665 262.763 116.467 263.009 116.467H263.035C263.281 116.467 263.481 116.665 263.481 116.91ZM259.143 116.91C259.143 117.154 258.944 117.352 258.698 117.352H258.644C258.398 117.352 258.199 117.154 258.199 116.91C258.199 116.665 258.398 116.467 258.644 116.467H258.698C258.944 116.467 259.143 116.665 259.143 116.91ZM254.779 116.91C254.779 117.154 254.579 117.352 254.333 117.352H254.28C254.034 117.352 253.834 117.154 253.834 116.91C253.834 116.665 254.034 116.467 254.28 116.467H254.333C254.579 116.467 254.779 116.665 254.779 116.91ZM250.414 116.91C250.414 117.154 250.215 117.352 249.969 117.352H249.915C249.669 117.352 249.47 117.154 249.47 116.91C249.47 116.665 249.669 116.467 249.915 116.467H249.969C250.215 116.467 250.414 116.665 250.414 116.91ZM246.05 116.91C246.05 117.154 245.85 117.352 245.604 117.352H245.55C245.305 117.352 245.105 117.154 245.105 116.91C245.105 116.665 245.305 116.467 245.55 116.467H245.604C245.85 116.467 246.05 116.665 246.05 116.91ZM241.685 116.91C241.685 117.154 241.486 117.352 241.24 117.352H241.213C240.967 117.352 240.768 117.154 240.768 116.91C240.768 116.665 240.967 116.467 241.213 116.467H241.24C241.486 116.467 241.685 116.665 241.685 116.91ZM224.836 117.352C225.082 117.352 225.281 117.154 225.281 116.91C225.281 116.665 225.082 116.467 224.836 116.467H224.809C224.563 116.467 224.364 116.665 224.364 116.91C224.364 117.154 224.563 117.352 224.809 117.352H224.836ZM220.461 117.352C220.707 117.352 220.906 117.154 220.906 116.91C220.906 116.665 220.707 116.467 220.461 116.467H220.406C220.16 116.467 219.961 116.665 219.961 116.91C219.961 117.154 220.16 117.352 220.406 117.352H220.461ZM216.058 117.352C216.304 117.352 216.503 117.154 216.503 116.91C216.503 116.665 216.304 116.467 216.058 116.467H216.004C215.758 116.467 215.558 116.665 215.558 116.91C215.558 117.154 215.758 117.352 216.004 117.352H216.058ZM211.655 117.352C211.901 117.352 212.101 117.154 212.101 116.91C212.101 116.665 211.901 116.467 211.655 116.467H211.601C211.355 116.467 211.156 116.665 211.156 116.91C211.156 117.154 211.355 117.352 211.601 117.352H211.655ZM207.253 117.352C207.498 117.352 207.698 117.154 207.698 116.91C207.698 116.665 207.498 116.467 207.253 116.467H207.198C206.952 116.467 206.753 116.665 206.753 116.91C206.753 117.154 206.952 117.352 207.198 117.352H207.253Z" fill="#55555E"/>
<path fill-rule="evenodd" clip-rule="evenodd" d="M232.899 86.541H232.959C233.205 86.5412 233.404 86.7396 233.404 86.9841C233.403 87.2285 233.204 87.4265 232.958 87.4263H232.9C232.654 87.4265 232.455 87.2285 232.454 86.9841C232.454 86.7396 232.653 86.5412 232.899 86.541ZM228.69 87.2748C228.728 87.5163 228.562 87.7427 228.319 87.7804L228.262 87.7893C228.019 87.8275 227.791 87.6627 227.753 87.4213C227.714 87.1798 227.88 86.9531 228.123 86.9149L228.182 86.9058C228.425 86.8681 228.652 87.0333 228.69 87.2748ZM237.167 87.2748C237.205 87.0333 237.433 86.8681 237.676 86.9058L237.735 86.9149C237.978 86.9531 238.143 87.1798 238.105 87.4213C238.067 87.6627 237.839 87.8275 237.596 87.7893L237.539 87.7804C237.296 87.7427 237.129 87.5163 237.167 87.2748ZM241.777 88.2944C241.852 88.0619 242.103 87.9343 242.337 88.0096L242.394 88.0278C242.627 88.1035 242.755 88.3533 242.679 88.5858C242.603 88.8182 242.352 88.9452 242.118 88.8695L242.063 88.8518C241.829 88.7766 241.701 88.527 241.777 88.2944ZM224.081 88.2944C224.157 88.527 224.029 88.7766 223.795 88.8518L223.74 88.8695C223.506 88.9452 223.255 88.8182 223.179 88.5858C223.103 88.3533 223.23 88.1035 223.464 88.0278L223.521 88.0096C223.755 87.9343 224.006 88.0619 224.081 88.2944ZM246.166 90.023C246.278 89.8052 246.546 89.7185 246.765 89.8295L246.818 89.8562C247.036 89.9676 247.123 90.2343 247.011 90.4519C246.899 90.6695 246.631 90.7556 246.412 90.6443L246.361 90.6183C246.141 90.5074 246.054 90.2408 246.166 90.023ZM219.692 90.023C219.804 90.2408 219.716 90.5074 219.497 90.6183L219.446 90.6443C219.227 90.7557 218.959 90.6695 218.847 90.4519C218.735 90.2343 218.821 89.9676 219.04 89.8562L219.093 89.8295C219.312 89.7185 219.58 89.8052 219.692 90.023ZM215.63 92.4153C215.775 92.6131 215.731 92.8899 215.532 93.0335L215.485 93.0671C215.286 93.2112 215.008 93.1678 214.863 92.9703C214.718 92.7728 214.762 92.4959 214.96 92.3519L215.008 92.3172C215.207 92.1736 215.486 92.2175 215.63 92.4153ZM250.228 92.4153C250.372 92.2175 250.651 92.1736 250.85 92.3172L250.897 92.3519C251.096 92.4959 251.14 92.7728 250.995 92.9703C250.85 93.1678 250.571 93.2112 250.373 93.0671L250.326 93.0335C250.127 92.8899 250.083 92.6131 250.228 92.4153ZM211.994 95.4084C212.167 95.5814 212.167 95.8617 211.993 96.0344L211.952 96.0748C211.779 96.2478 211.497 96.2481 211.323 96.0754C211.149 95.9027 211.148 95.6224 211.322 95.4494L211.364 95.4078C211.538 95.2351 211.82 95.2354 211.994 95.4084ZM253.864 95.4084C254.038 95.2354 254.32 95.2351 254.494 95.4078L254.536 95.4494C254.709 95.6224 254.709 95.9027 254.535 96.0754C254.361 96.2481 254.079 96.2478 253.905 96.0748L253.865 96.0344C253.691 95.8617 253.69 95.5814 253.864 95.4084ZM208.87 98.9274C209.069 99.0715 209.112 99.3483 208.967 99.5459L208.934 99.592C208.789 99.7898 208.511 99.8337 208.312 99.6901C208.113 99.5464 208.068 99.2696 208.213 99.0718L208.248 99.0243C208.393 98.8267 208.671 98.7834 208.87 98.9274ZM256.988 98.9274C257.187 98.7834 257.465 98.8267 257.61 99.0243L257.645 99.0718C257.789 99.2696 257.745 99.5464 257.546 99.6901C257.347 99.8337 257.069 99.7898 256.924 99.592L256.89 99.5459C256.746 99.3483 256.789 99.0715 256.988 98.9274ZM259.521 102.887C259.74 102.776 260.009 102.862 260.121 103.08L260.148 103.132C260.259 103.35 260.172 103.616 259.953 103.727C259.734 103.838 259.466 103.752 259.354 103.534L259.328 103.483C259.216 103.265 259.303 102.999 259.521 102.887ZM261.399 107.193C261.633 107.118 261.884 107.245 261.96 107.477L261.978 107.533C262.054 107.766 261.926 108.015 261.692 108.091C261.458 108.166 261.207 108.038 261.131 107.806L261.113 107.751C261.037 107.519 261.165 107.269 261.399 107.193ZM262.57 111.74C262.813 111.702 263.041 111.867 263.08 112.108L263.089 112.166C263.127 112.408 262.961 112.634 262.718 112.672C262.475 112.71 262.247 112.545 262.209 112.303L262.2 112.246C262.162 112.005 262.327 111.778 262.57 111.74ZM263.01 116.413C263.256 116.413 263.456 116.611 263.456 116.856V116.915C263.456 117.159 263.256 117.357 263.01 117.357C262.764 117.357 262.565 117.158 262.565 116.914V116.856C262.565 116.612 262.764 116.414 263.01 116.413ZM262.718 121.098C262.961 121.136 263.127 121.362 263.089 121.604L263.08 121.662C263.041 121.904 262.813 122.068 262.57 122.03C262.327 121.992 262.162 121.765 262.2 121.524L262.209 121.467C262.247 121.226 262.475 121.061 262.718 121.098ZM261.692 125.68C261.926 125.755 262.054 126.005 261.978 126.237L261.96 126.293C261.884 126.526 261.633 126.653 261.399 126.577C261.165 126.501 261.037 126.251 261.113 126.019L261.131 125.965C261.207 125.732 261.458 125.604 261.692 125.68ZM205.905 130.043C206.124 129.932 206.392 130.019 206.504 130.236L206.53 130.287C206.642 130.505 206.555 130.772 206.336 130.883C206.117 130.994 205.849 130.908 205.737 130.691L205.71 130.638C205.599 130.42 205.686 130.154 205.905 130.043ZM259.953 130.043C260.172 130.154 260.259 130.42 260.148 130.638L260.121 130.691C260.009 130.908 259.74 130.994 259.521 130.883C259.303 130.772 259.216 130.505 259.328 130.287L259.354 130.236C259.466 130.019 259.734 129.932 259.953 130.043ZM208.312 134.08C208.511 133.937 208.789 133.981 208.934 134.178L208.967 134.224C209.112 134.422 209.069 134.699 208.87 134.843C208.671 134.987 208.393 134.944 208.248 134.746L208.213 134.699C208.068 134.501 208.113 134.224 208.312 134.08ZM257.546 134.08C257.745 134.224 257.789 134.501 257.645 134.699L257.61 134.746C257.465 134.944 257.187 134.987 256.988 134.843C256.789 134.699 256.746 134.422 256.89 134.224L256.924 134.178C257.069 133.981 257.347 133.937 257.546 134.08ZM211.323 137.695C211.497 137.522 211.779 137.523 211.952 137.696L211.993 137.736C212.167 137.909 212.167 138.189 211.994 138.362C211.82 138.535 211.538 138.535 211.364 138.363L211.322 138.321C211.148 138.148 211.149 137.868 211.323 137.695ZM254.535 137.695C254.709 137.868 254.709 138.148 254.536 138.321L254.494 138.363C254.32 138.535 254.038 138.535 253.864 138.362C253.69 138.189 253.691 137.909 253.865 137.736L253.905 137.696C254.079 137.523 254.361 137.522 254.535 137.695ZM214.863 140.8C215.008 140.603 215.286 140.559 215.485 140.703L215.532 140.737C215.731 140.88 215.775 141.157 215.63 141.355C215.486 141.553 215.207 141.597 215.008 141.453L214.96 141.418C214.762 141.274 214.718 140.998 214.863 140.8ZM250.995 140.8C251.14 140.998 251.096 141.274 250.897 141.418L250.85 141.453C250.651 141.597 250.372 141.553 250.228 141.355C250.083 141.157 250.127 140.88 250.326 140.737L250.373 140.703C250.571 140.559 250.85 140.603 250.995 140.8ZM218.847 143.318C218.959 143.101 219.227 143.015 219.446 143.126L219.497 143.152C219.716 143.263 219.804 143.53 219.692 143.747C219.58 143.965 219.312 144.052 219.093 143.941L219.04 143.914C218.821 143.803 218.735 143.536 218.847 143.318ZM247.011 143.318C247.123 143.536 247.036 143.803 246.818 143.914L246.765 143.941C246.546 144.052 246.278 143.965 246.166 143.747C246.054 143.53 246.141 143.263 246.361 143.152L246.412 143.126C246.631 143.015 246.899 143.101 247.011 143.318ZM223.179 145.185C223.255 144.952 223.506 144.825 223.74 144.901L223.795 144.919C224.029 144.994 224.157 145.243 224.081 145.476C224.006 145.708 223.755 145.836 223.521 145.761L223.464 145.743C223.23 145.667 223.103 145.417 223.179 145.185ZM242.679 145.185C242.755 145.417 242.627 145.667 242.394 145.743L242.337 145.761C242.103 145.836 241.852 145.708 241.777 145.476C241.701 145.243 241.829 144.994 242.063 144.919L242.118 144.901C242.352 144.825 242.603 144.952 242.679 145.185ZM227.753 146.349C227.791 146.108 228.019 145.943 228.262 145.981L228.319 145.99C228.562 146.028 228.728 146.254 228.69 146.496C228.652 146.737 228.425 146.902 228.182 146.865L228.123 146.855C227.88 146.817 227.714 146.591 227.753 146.349ZM238.105 146.349C238.143 146.591 237.978 146.817 237.735 146.855L237.676 146.865C237.433 146.902 237.205 146.737 237.167 146.496C237.129 146.254 237.296 146.028 237.539 145.99L237.596 145.981C237.839 145.943 238.067 146.108 238.105 146.349ZM232.454 146.786C232.455 146.542 232.654 146.344 232.9 146.344H232.958C233.204 146.344 233.403 146.542 233.404 146.786C233.404 147.031 233.205 147.229 232.959 147.229H232.899C232.653 147.229 232.454 147.031 232.454 146.786Z" fill="#1A1A27"/>
<path d="M233.918 86.9836C233.918 87.5268 233.475 87.9672 232.929 87.9672C232.382 87.9672 231.939 87.5268 231.939 86.9836C231.939 86.4403 232.382 86 232.929 86C233.475 86 233.918 86.4403 233.918 86.9836Z" fill="#6966FF"/>
<path d="M233.918 146.787C233.918 147.33 233.475 147.77 232.929 147.77C232.382 147.77 231.939 147.33 231.939 146.787C231.939 146.243 232.382 145.803 232.929 145.803C233.475 145.803 233.918 146.243 233.918 146.787Z" fill="#6966FF"/>
<path d="M263.011 117.869C262.464 117.869 262.021 117.428 262.021 116.885C262.021 116.342 262.464 115.902 263.011 115.902C263.557 115.902 264 116.342 264 116.885C264 117.428 263.557 117.869 263.011 117.869Z" fill="#6966FF"/>
<path fill-rule="evenodd" clip-rule="evenodd" d="M241.572 98.4478H249.779L223.357 135.232H215.287L241.572 98.4478ZM231.932 109.287L224.198 98.4478H215.959L227.897 115.199L231.932 109.287ZM229.908 109.308L227.867 112.299L219.174 100.1H223.339L229.908 109.308ZM218.507 133.579H222.501L246.549 100.1H242.431L218.507 133.579Z" fill="#1A1A27"/>
<path fill-rule="evenodd" clip-rule="evenodd" d="M243.226 133.464C243.32 133.593 243.47 133.67 243.631 133.67H247.366L238.411 121.03C238.212 120.748 237.793 120.749 237.595 121.031L236.136 123.103C236.013 123.278 236.014 123.511 236.14 123.684L243.226 133.464ZM233.891 123.409L242.524 135.323H250.57L237.998 117.577L233.891 123.409Z" fill="#6966FF"/>
<path fill-rule="evenodd" clip-rule="evenodd" d="M157.217 98.4478H150.163V109.393C148.126 108.31 145.787 107.694 143.3 107.694C135.404 107.694 129.002 113.903 129.002 121.562C129.002 129.222 135.404 135.431 143.3 135.431C145.787 135.431 148.126 134.815 150.163 133.732V135.101H157.217V98.4478ZM151.323 121.489C151.323 125.828 147.697 129.344 143.225 129.344C138.753 129.344 135.127 125.828 135.127 121.489C135.127 117.151 138.753 113.634 143.225 113.634C147.697 113.634 151.323 117.151 151.323 121.489ZM185.797 98.4478L159.568 135.101H167.791L193.995 98.4478H185.797ZM206.257 98.4478H213.31V135.101H206.257V133.732C204.22 134.815 201.881 135.431 199.394 135.431C191.497 135.431 185.096 129.222 185.096 121.562C185.096 113.903 191.497 107.694 199.394 107.694C201.881 107.694 204.22 108.31 206.257 109.393V98.4478ZM199.318 129.344C203.791 129.344 207.416 125.828 207.416 121.489C207.416 117.151 203.791 113.634 199.318 113.634C194.846 113.634 191.22 117.151 191.22 121.489C191.22 125.828 194.846 129.344 199.318 129.344ZM176.027 109.576L167.798 98.4478H159.232L171.492 115.794L176.027 109.576Z" fill="#1A1A27"/>
<rect x="332" y="16" width="44" height="44" rx="22" fill="#393953"/>
<g clip-path="url(#clip0_2352_29130)">
<path d="M350.667 42.1666L354 45.5L357.333 42.1666" stroke="white" stroke-width="2" stroke-linecap="round" stroke-linejoin="round"/>
<path d="M354 38V45.5" stroke="white" stroke-width="2" stroke-linecap="round" stroke-linejoin="round"/>
<path d="M361.399 43.0749C362.124 42.5655 362.667 41.8384 362.95 40.9992C363.234 40.1601 363.242 39.2525 362.975 38.4081C362.707 37.5638 362.178 36.8267 361.463 36.3037C360.748 35.7808 359.885 35.4993 358.999 35.4999H357.949C357.699 34.5232 357.23 33.616 356.578 32.8467C355.926 32.0774 355.108 31.466 354.185 31.0586C353.263 30.6512 352.26 30.4583 351.252 30.4945C350.245 30.5308 349.258 30.7952 348.367 31.2678C347.476 31.7404 346.705 32.409 346.109 33.2231C345.514 34.0373 345.112 34.9758 344.932 35.9681C344.752 36.9603 344.8 37.9804 345.071 38.9516C345.343 39.9228 345.831 40.8198 346.499 41.5749" stroke="white" stroke-width="2" stroke-linecap="round" stroke-linejoin="round"/>
</g>
<path d="M3.04 284H1.44V272.656H3.04V284ZM7.09238 279.552V284H5.58837V276.304H7.06037V277.408C7.57238 276.523 8.36171 276.08 9.42838 276.08C10.3137 276.08 10.991 276.363 11.4604 276.928C11.9404 277.493 12.1804 278.224 12.1804 279.12V284H10.6764V279.376C10.6764 278.085 10.079 277.44 8.88438 277.44C8.31904 277.44 7.87638 277.643 7.55638 278.048C7.24704 278.443 7.09238 278.944 7.09238 279.552ZM20.9887 276.304L17.9167 284H16.3967L13.2767 276.304H14.9727L17.1648 282.24L19.3728 276.304H20.9887ZM22.9936 279.36H27.2016C27.1803 278.784 26.9883 278.315 26.6256 277.952C26.263 277.579 25.751 277.392 25.0896 277.392C24.4923 277.392 24.0016 277.589 23.6176 277.984C23.2336 278.368 23.0256 278.827 22.9936 279.36ZM27.4256 281.36L28.7216 281.808C28.4976 282.523 28.0816 283.109 27.4736 283.568C26.8656 284.016 26.1296 284.24 25.2656 284.24C24.1883 284.24 23.271 283.872 22.5136 283.136C21.767 282.389 21.3936 281.387 21.3936 280.128C21.3936 278.955 21.7563 277.984 22.4816 277.216C23.207 276.448 24.071 276.064 25.0736 276.064C26.2363 276.064 27.143 276.432 27.7936 277.168C28.4443 277.893 28.7696 278.869 28.7696 280.096C28.7696 280.288 28.759 280.448 28.7376 280.576H22.9456C22.9563 281.259 23.1803 281.819 23.6176 282.256C24.0656 282.693 24.615 282.912 25.2656 282.912C26.3643 282.912 27.0843 282.395 27.4256 281.36ZM34.7855 276.224V277.824C34.5615 277.792 34.3428 277.776 34.1295 277.776C32.7215 277.776 32.0175 278.565 32.0175 280.144V284H30.5135V276.304H31.9855V277.648C32.4548 276.667 33.2228 276.176 34.2895 276.176C34.4602 276.176 34.6255 276.192 34.7855 276.224ZM38.6347 273.872V276.304H40.2987V277.664H38.6347V281.664C38.6347 282.027 38.7147 282.293 38.8747 282.464C39.0454 282.635 39.3227 282.72 39.7067 282.72C39.9307 282.72 40.1281 282.699 40.2987 282.656V283.936C40.0427 284.032 39.7014 284.08 39.2747 284.08C38.6134 284.08 38.0907 283.888 37.7067 283.504C37.3227 283.12 37.1307 282.581 37.1307 281.888V277.664H35.6587V276.304H36.0747C36.4694 276.304 36.7627 276.197 36.9547 275.984C37.1574 275.76 37.2587 275.472 37.2587 275.12V273.872H38.6347ZM43.0281 279.36H47.2361C47.2148 278.784 47.0228 278.315 46.6601 277.952C46.2975 277.579 45.7855 277.392 45.1241 277.392C44.5268 277.392 44.0361 277.589 43.6521 277.984C43.2681 278.368 43.0601 278.827 43.0281 279.36ZM47.4601 281.36L48.7561 281.808C48.5321 282.523 48.1161 283.109 47.5081 283.568C46.9001 284.016 46.1641 284.24 45.3001 284.24C44.2228 284.24 43.3055 283.872 42.5481 283.136C41.8015 282.389 41.4281 281.387 41.4281 280.128C41.4281 278.955 41.7908 277.984 42.5161 277.216C43.2415 276.448 44.1055 276.064 45.1081 276.064C46.2708 276.064 47.1775 276.432 47.8281 277.168C48.4788 277.893 48.8041 278.869 48.8041 280.096C48.8041 280.288 48.7935 280.448 48.7721 280.576H42.9801C42.9908 281.259 43.2148 281.819 43.6521 282.256C44.1001 282.693 44.6495 282.912 45.3001 282.912C46.3988 282.912 47.1188 282.395 47.4601 281.36ZM51.444 280.128C51.444 280.939 51.6413 281.6 52.036 282.112C52.4413 282.624 52.996 282.88 53.7 282.88C54.372 282.88 54.9107 282.619 55.316 282.096C55.7213 281.573 55.924 280.907 55.924 280.096C55.924 279.296 55.7267 278.651 55.332 278.16C54.9373 277.669 54.3987 277.424 53.716 277.424C53.0333 277.424 52.484 277.675 52.068 278.176C51.652 278.677 51.444 279.328 51.444 280.128ZM55.94 282.96V282.832C55.7373 283.227 55.428 283.557 55.012 283.824C54.6067 284.08 54.1213 284.208 53.556 284.208C52.4573 284.208 51.572 283.824 50.9 283.056C50.2387 282.277 49.908 281.301 49.908 280.128C49.908 279.008 50.2493 278.059 50.932 277.28C51.6147 276.491 52.4893 276.096 53.556 276.096C54.1853 276.096 54.6973 276.224 55.092 276.48C55.4867 276.725 55.7587 277.029 55.908 277.392V272.416H57.396V282.576C57.396 283.099 57.4227 283.573 57.476 284H56.02C55.9667 283.701 55.94 283.355 55.94 282.96ZM65.3303 277.952H67.6023C68.2743 277.952 68.8076 277.781 69.2023 277.44C69.5969 277.088 69.7943 276.619 69.7943 276.032C69.7943 275.435 69.5969 274.96 69.2023 274.608C68.8076 274.245 68.2743 274.064 67.6023 274.064H65.3303V277.952ZM67.8903 279.36H65.3303V284H63.7623V272.656H67.8903C68.9249 272.656 69.7676 272.976 70.4183 273.616C71.0689 274.256 71.3943 275.056 71.3943 276.016C71.3943 276.987 71.0689 277.787 70.4183 278.416C69.7676 279.045 68.9249 279.36 67.8903 279.36ZM77.0107 276.224V277.824C76.7867 277.792 76.5681 277.776 76.3547 277.776C74.9467 277.776 74.2427 278.565 74.2427 280.144V284H72.7387V276.304H74.2107V277.648C74.6801 276.667 75.4481 276.176 76.5147 276.176C76.6854 276.176 76.8507 276.192 77.0107 276.224ZM79.9258 284H78.4378V276.304H79.9258V284ZM78.4058 274.16C78.2031 273.947 78.1018 273.691 78.1018 273.392C78.1018 273.093 78.2031 272.837 78.4058 272.624C78.6191 272.411 78.8751 272.304 79.1738 272.304C79.4724 272.304 79.7284 272.411 79.9418 272.624C80.1551 272.827 80.2618 273.083 80.2618 273.392C80.2618 273.691 80.1551 273.947 79.9418 274.16C79.7284 274.363 79.4724 274.464 79.1738 274.464C78.8751 274.464 78.6191 274.363 78.4058 274.16ZM83.7966 284H82.3086V276.304H83.7486V277.328C83.9833 276.923 84.314 276.613 84.7406 276.4C85.1673 276.187 85.6153 276.08 86.0846 276.08C86.586 276.08 87.0446 276.203 87.4606 276.448C87.8766 276.693 88.186 277.056 88.3886 277.536C88.922 276.565 89.7806 276.08 90.9646 276.08C91.7006 276.08 92.3246 276.331 92.8366 276.832C93.3593 277.333 93.6206 278.059 93.6206 279.008V284H92.1326V279.168C92.1326 278.635 91.994 278.208 91.7166 277.888C91.45 277.568 91.0446 277.408 90.5006 277.408C89.978 277.408 89.5513 277.595 89.2206 277.968C88.89 278.331 88.7246 278.789 88.7246 279.344V284H87.2206V279.168C87.2206 278.635 87.082 278.208 86.8046 277.888C86.538 277.568 86.1326 277.408 85.5886 277.408C85.0553 277.408 84.6233 277.589 84.2926 277.952C83.962 278.315 83.7966 278.784 83.7966 279.36V284ZM95.3714 281.936C95.3714 281.275 95.5847 280.747 96.0114 280.352C96.438 279.947 97.0034 279.696 97.7074 279.6L99.7874 279.296C100.182 279.243 100.379 279.051 100.379 278.72C100.379 278.315 100.241 277.984 99.9634 277.728C99.686 277.472 99.27 277.344 98.7154 277.344C98.2034 277.344 97.798 277.488 97.4994 277.776C97.2007 278.053 97.0247 278.427 96.9714 278.896L95.5314 278.56C95.606 277.824 95.942 277.227 96.5394 276.768C97.1367 276.299 97.8514 276.064 98.6834 276.064C99.7714 276.064 100.577 276.331 101.099 276.864C101.622 277.387 101.883 278.059 101.883 278.88V282.736C101.883 283.195 101.915 283.616 101.979 284H100.507C100.454 283.68 100.427 283.333 100.427 282.96C100.214 283.301 99.8994 283.6 99.4834 283.856C99.078 284.112 98.566 284.24 97.9474 284.24C97.19 284.24 96.5714 284.016 96.0914 283.568C95.6114 283.109 95.3714 282.565 95.3714 281.936ZM98.1554 282.976C98.8274 282.976 99.366 282.795 99.7714 282.432C100.177 282.069 100.379 281.493 100.379 280.704V280.352L98.0274 280.704C97.686 280.757 97.414 280.88 97.2114 281.072C97.0087 281.264 96.9074 281.525 96.9074 281.856C96.9074 282.155 97.0194 282.416 97.2434 282.64C97.478 282.864 97.782 282.976 98.1554 282.976ZM108.322 276.224V277.824C108.098 277.792 107.88 277.776 107.666 277.776C106.258 277.776 105.554 278.565 105.554 280.144V284H104.05V276.304H105.522V277.648C105.992 276.667 106.76 276.176 107.826 276.176C107.997 276.176 108.162 276.192 108.322 276.224ZM111.904 287.216H110.256L112.176 283.152L108.864 276.304H110.592L112.992 281.616L115.296 276.304H116.912L111.904 287.216ZM129.095 284H122.167V272.656H123.735V282.528H129.095V284ZM132.102 282.176C132.572 282.656 133.142 282.896 133.814 282.896C134.486 282.896 135.052 282.656 135.51 282.176C135.98 281.685 136.214 281.008 136.214 280.144C136.214 279.291 135.98 278.624 135.51 278.144C135.052 277.653 134.486 277.408 133.814 277.408C133.142 277.408 132.572 277.653 132.102 278.144C131.644 278.624 131.414 279.291 131.414 280.144C131.414 281.008 131.644 281.685 132.102 282.176ZM130.982 277.232C131.729 276.453 132.673 276.064 133.814 276.064C134.956 276.064 135.894 276.453 136.63 277.232C137.377 278 137.75 278.971 137.75 280.144C137.75 281.328 137.382 282.309 136.646 283.088C135.91 283.856 134.966 284.24 133.814 284.24C132.662 284.24 131.718 283.856 130.982 283.088C130.246 282.309 129.878 281.328 129.878 280.144C129.878 278.971 130.246 278 130.982 277.232ZM138.939 284.416L140.395 284.08C140.448 284.624 140.667 285.072 141.051 285.424C141.435 285.787 141.915 285.968 142.491 285.968C144.059 285.968 144.843 285.136 144.843 283.472V282.368C144.651 282.741 144.347 283.045 143.931 283.28C143.525 283.515 143.045 283.632 142.491 283.632C141.467 283.632 140.619 283.285 139.947 282.592C139.285 281.888 138.955 280.992 138.955 279.904C138.955 278.848 139.285 277.963 139.947 277.248C140.608 276.523 141.456 276.16 142.491 276.16C143.664 276.16 144.453 276.565 144.859 277.376V276.304H146.347V283.424C146.347 283.936 146.277 284.411 146.139 284.848C146.011 285.296 145.803 285.707 145.515 286.08C145.227 286.453 144.821 286.747 144.299 286.96C143.787 287.173 143.184 287.28 142.491 287.28C141.541 287.28 140.736 287.008 140.075 286.464C139.413 285.931 139.035 285.248 138.939 284.416ZM142.715 282.368C143.365 282.368 143.893 282.144 144.299 281.696C144.704 281.237 144.907 280.64 144.907 279.904C144.907 279.168 144.704 278.576 144.299 278.128C143.893 277.669 143.365 277.44 142.715 277.44C142.053 277.44 141.515 277.664 141.099 278.112C140.693 278.56 140.491 279.157 140.491 279.904C140.491 280.661 140.688 281.264 141.083 281.712C141.488 282.149 142.032 282.368 142.715 282.368ZM150.156 282.176C150.626 282.656 151.196 282.896 151.868 282.896C152.54 282.896 153.106 282.656 153.564 282.176C154.034 281.685 154.268 281.008 154.268 280.144C154.268 279.291 154.034 278.624 153.564 278.144C153.106 277.653 152.54 277.408 151.868 277.408C151.196 277.408 150.626 277.653 150.156 278.144C149.698 278.624 149.468 279.291 149.468 280.144C149.468 281.008 149.698 281.685 150.156 282.176ZM149.036 277.232C149.783 276.453 150.727 276.064 151.868 276.064C153.01 276.064 153.948 276.453 154.684 277.232C155.431 278 155.804 278.971 155.804 280.144C155.804 281.328 155.436 282.309 154.7 283.088C153.964 283.856 153.02 284.24 151.868 284.24C150.716 284.24 149.772 283.856 149.036 283.088C148.3 282.309 147.932 281.328 147.932 280.144C147.932 278.971 148.3 278 149.036 277.232Z" fill="white"/>
<defs>
<clipPath id="clip0_2352_29130">
<rect width="20" height="20" fill="white" transform="translate(344 28)"/>
</clipPath>
</defs>
</svg>
