<svg width="1440" height="792" viewBox="0 0 1440 792" fill="none" xmlns="http://www.w3.org/2000/svg">
<rect width="24" height="792" stroke="#393953" stroke-opacity="0.3"/>
<rect x="24" width="24" height="792" stroke="#393953" stroke-opacity="0.3"/>
<rect x="48" width="24" height="792" stroke="#393953" stroke-opacity="0.3"/>
<rect x="72" width="24" height="792" stroke="#393953" stroke-opacity="0.3"/>
<rect x="96" width="24" height="792" stroke="#393953" stroke-opacity="0.3"/>
<rect x="120" width="24" height="792" stroke="#393953" stroke-opacity="0.3"/>
<rect x="144" width="24" height="792" stroke="#393953" stroke-opacity="0.3"/>
<rect x="168" width="24" height="792" stroke="#393953" stroke-opacity="0.3"/>
<rect x="192" width="24" height="792" stroke="#393953" stroke-opacity="0.3"/>
<rect x="216" width="24" height="792" stroke="#393953" stroke-opacity="0.3"/>
<rect x="240" width="24" height="792" stroke="#393953" stroke-opacity="0.3"/>
<rect x="264" width="24" height="792" stroke="#393953" stroke-opacity="0.3"/>
<rect x="288" width="24" height="792" stroke="#393953" stroke-opacity="0.3"/>
<rect x="312" width="24" height="792" stroke="#393953" stroke-opacity="0.3"/>
<rect x="336" width="24" height="792" stroke="#393953" stroke-opacity="0.3"/>
<rect x="360" width="24" height="792" stroke="#393953" stroke-opacity="0.3"/>
<rect x="384" width="24" height="792" stroke="#393953" stroke-opacity="0.3"/>
<rect x="408" width="24" height="792" stroke="#393953" stroke-opacity="0.3"/>
<rect x="432" width="24" height="792" stroke="#393953" stroke-opacity="0.3"/>
<rect x="456" width="24" height="792" stroke="#393953" stroke-opacity="0.3"/>
<rect x="480" width="24" height="792" stroke="#393953" stroke-opacity="0.3"/>
<rect x="504" width="24" height="792" stroke="#393953" stroke-opacity="0.3"/>
<rect x="528" width="24" height="792" stroke="#393953" stroke-opacity="0.3"/>
<rect x="552" width="24" height="792" stroke="#393953" stroke-opacity="0.3"/>
<rect x="576" width="24" height="792" stroke="#393953" stroke-opacity="0.3"/>
<rect x="600" width="24" height="792" stroke="#393953" stroke-opacity="0.3"/>
<rect x="624" width="24" height="792" stroke="#393953" stroke-opacity="0.3"/>
<rect x="648" width="24" height="792" stroke="#393953" stroke-opacity="0.3"/>
<rect x="672" width="24" height="792" stroke="#393953" stroke-opacity="0.3"/>
<rect x="696" width="24" height="792" stroke="#393953" stroke-opacity="0.3"/>
<rect x="720" width="24" height="792" stroke="#393953" stroke-opacity="0.3"/>
<rect x="744" width="24" height="792" stroke="#393953" stroke-opacity="0.3"/>
<rect x="768" width="24" height="792" stroke="#393953" stroke-opacity="0.3"/>
<rect x="792" width="24" height="792" stroke="#393953" stroke-opacity="0.3"/>
<rect x="816" width="24" height="792" stroke="#393953" stroke-opacity="0.3"/>
<rect x="840" width="24" height="792" stroke="#393953" stroke-opacity="0.3"/>
<rect x="864" width="24" height="792" stroke="#393953" stroke-opacity="0.3"/>
<rect x="888" width="24" height="792" stroke="#393953" stroke-opacity="0.3"/>
<rect x="912" width="24" height="792" stroke="#393953" stroke-opacity="0.3"/>
<rect x="936" width="24" height="792" stroke="#393953" stroke-opacity="0.3"/>
<rect x="960" width="24" height="792" stroke="#393953" stroke-opacity="0.3"/>
<rect x="984" width="24" height="792" stroke="#393953" stroke-opacity="0.3"/>
<rect x="1008" width="24" height="792" stroke="#393953" stroke-opacity="0.3"/>
<rect x="1032" width="24" height="792" stroke="#393953" stroke-opacity="0.3"/>
<rect x="1056" width="24" height="792" stroke="#393953" stroke-opacity="0.3"/>
<rect x="1080" width="24" height="792" stroke="#393953" stroke-opacity="0.3"/>
<rect x="1104" width="24" height="792" stroke="#393953" stroke-opacity="0.3"/>
<rect x="1128" width="24" height="792" stroke="#393953" stroke-opacity="0.3"/>
<rect x="1152" width="24" height="792" stroke="#393953" stroke-opacity="0.3"/>
<rect x="1176" width="24" height="792" stroke="#393953" stroke-opacity="0.3"/>
<rect x="1200" width="24" height="792" stroke="#393953" stroke-opacity="0.3"/>
<rect x="1224" width="24" height="792" stroke="#393953" stroke-opacity="0.3"/>
<rect x="1248" width="24" height="792" stroke="#393953" stroke-opacity="0.3"/>
<rect x="1272" width="24" height="792" stroke="#393953" stroke-opacity="0.3"/>
<rect x="1296" width="24" height="792" stroke="#393953" stroke-opacity="0.3"/>
<rect x="1320" width="24" height="792" stroke="#393953" stroke-opacity="0.3"/>
<rect x="1344" width="24" height="792" stroke="#393953" stroke-opacity="0.3"/>
<rect x="1368" width="24" height="792" stroke="#393953" stroke-opacity="0.3"/>
<rect x="1392" width="24" height="792" stroke="#393953" stroke-opacity="0.3"/>
<rect x="1416" width="24" height="792" stroke="#393953" stroke-opacity="0.3"/>
<rect y="24" width="24" height="1440" transform="rotate(-90 0 24)" stroke="#393953" stroke-opacity="0.3"/>
<rect y="48" width="24" height="1440" transform="rotate(-90 0 48)" stroke="#393953" stroke-opacity="0.3"/>
<rect y="72" width="24" height="1440" transform="rotate(-90 0 72)" stroke="#393953" stroke-opacity="0.3"/>
<rect y="96" width="24" height="1440" transform="rotate(-90 0 96)" stroke="#393953" stroke-opacity="0.3"/>
<rect y="120" width="24" height="1440" transform="rotate(-90 0 120)" stroke="#393953" stroke-opacity="0.3"/>
<rect y="144" width="24" height="1440" transform="rotate(-90 0 144)" stroke="#393953" stroke-opacity="0.3"/>
<rect y="168" width="24" height="1440" transform="rotate(-90 0 168)" stroke="#393953" stroke-opacity="0.3"/>
<rect y="192" width="24" height="1440" transform="rotate(-90 0 192)" stroke="#393953" stroke-opacity="0.3"/>
<rect y="216" width="24" height="1440" transform="rotate(-90 0 216)" stroke="#393953" stroke-opacity="0.3"/>
<rect y="240" width="24" height="1440" transform="rotate(-90 0 240)" stroke="#393953" stroke-opacity="0.3"/>
<rect y="264" width="24" height="1440" transform="rotate(-90 0 264)" stroke="#393953" stroke-opacity="0.3"/>
<rect y="288" width="24" height="1440" transform="rotate(-90 0 288)" stroke="#393953" stroke-opacity="0.3"/>
<rect y="312" width="24" height="1440" transform="rotate(-90 0 312)" stroke="#393953" stroke-opacity="0.3"/>
<rect y="336" width="24" height="1440" transform="rotate(-90 0 336)" stroke="#393953" stroke-opacity="0.3"/>
<rect y="360" width="24" height="1440" transform="rotate(-90 0 360)" stroke="#393953" stroke-opacity="0.3"/>
<rect y="384" width="24" height="1440" transform="rotate(-90 0 384)" stroke="#393953" stroke-opacity="0.3"/>
<rect y="408" width="24" height="1440" transform="rotate(-90 0 408)" stroke="#393953" stroke-opacity="0.3"/>
<rect y="432" width="24" height="1440" transform="rotate(-90 0 432)" stroke="#393953" stroke-opacity="0.3"/>
<rect y="456" width="24" height="1440" transform="rotate(-90 0 456)" stroke="#393953" stroke-opacity="0.3"/>
<rect y="480" width="24" height="1440" transform="rotate(-90 0 480)" stroke="#393953" stroke-opacity="0.3"/>
<rect y="504" width="24" height="1440" transform="rotate(-90 0 504)" stroke="#393953" stroke-opacity="0.3"/>
<rect y="528" width="24" height="1440" transform="rotate(-90 0 528)" stroke="#393953" stroke-opacity="0.3"/>
<rect y="552" width="24" height="1440" transform="rotate(-90 0 552)" stroke="#393953" stroke-opacity="0.3"/>
<rect y="576" width="24" height="1440" transform="rotate(-90 0 576)" stroke="#393953" stroke-opacity="0.3"/>
<rect y="600" width="24" height="1440" transform="rotate(-90 0 600)" stroke="#393953" stroke-opacity="0.3"/>
<rect y="624" width="24" height="1440" transform="rotate(-90 0 624)" stroke="#393953" stroke-opacity="0.3"/>
<rect y="648" width="24" height="1440" transform="rotate(-90 0 648)" stroke="#393953" stroke-opacity="0.3"/>
<rect y="672" width="24" height="1440" transform="rotate(-90 0 672)" stroke="#393953" stroke-opacity="0.3"/>
<rect y="696" width="24" height="1440" transform="rotate(-90 0 696)" stroke="#393953" stroke-opacity="0.3"/>
<rect y="720" width="24" height="1440" transform="rotate(-90 0 720)" stroke="#393953" stroke-opacity="0.3"/>
<rect y="744" width="24" height="1440" transform="rotate(-90 0 744)" stroke="#393953" stroke-opacity="0.3"/>
<rect y="768" width="24" height="1440" transform="rotate(-90 0 768)" stroke="#393953" stroke-opacity="0.3"/>
<rect y="792" width="24" height="1440" transform="rotate(-90 0 792)" stroke="#393953" stroke-opacity="0.3"/>
</svg>
