<svg width="392" height="250" viewBox="0 0 392 250" fill="none" xmlns="http://www.w3.org/2000/svg">
<rect x="0.5" y="0.5" width="391" height="249" rx="15.5" fill="white"/>
<rect x="0.5" y="0.5" width="391" height="249" rx="15.5" stroke="#393953"/>
<path d="M129 159.26C129.375 161.763 131.786 164 135.403 164C140.359 164 142.315 160.725 142.315 157.129V145.439H138.886V146.983C138.43 146.105 137.225 145.199 135.135 145.199C131.518 145.199 129 148.128 129 151.59C129 155.265 131.625 157.955 135.135 157.955C137.037 157.955 138.27 157.129 138.805 156.277V157.236C138.805 159.766 137.546 160.884 135.296 160.884C133.608 160.884 132.456 159.846 132.215 158.408L129 159.26ZM135.751 154.919C133.903 154.919 132.59 153.641 132.59 151.59C132.59 149.566 133.983 148.288 135.751 148.288C137.466 148.288 138.859 149.566 138.859 151.59C138.859 153.614 137.573 154.919 135.751 154.919Z" fill="black"/>
<path d="M149.509 145.439H145.945V158.541H149.509V147.836C149.589 149.061 150.607 149.993 151.893 149.993C153.233 149.993 154.277 148.954 154.277 147.622C154.277 146.291 153.233 145.252 151.893 145.252C150.607 145.252 149.589 146.211 149.509 147.463V145.439Z" fill="black"/>
<path d="M155.634 154.972C155.634 157.023 157.348 158.914 160.161 158.914C162.117 158.914 163.376 158.008 164.046 156.97C164.046 157.476 164.099 158.195 164.18 158.541H167.448C167.368 158.088 167.288 157.156 167.288 156.464V150.019C167.288 147.383 165.734 145.039 161.554 145.039C158.018 145.039 156.116 147.303 155.902 149.353L159.063 150.019C159.17 148.874 160.027 147.889 161.581 147.889C163.081 147.889 163.805 148.661 163.805 149.593C163.805 150.046 163.564 150.419 162.814 150.525L159.572 151.005C157.375 151.324 155.634 152.629 155.634 154.972ZM160.911 156.277C159.759 156.277 159.197 155.532 159.197 154.759C159.197 153.747 159.92 153.241 160.831 153.108L163.805 152.656V153.241C163.805 155.558 162.412 156.277 160.911 156.277Z" fill="black"/>
<path d="M174.389 151.005C174.389 149.487 175.3 148.288 176.854 148.288C178.569 148.288 179.292 149.433 179.292 150.898V158.541H182.855V150.285C182.855 147.409 181.355 145.093 178.086 145.093C176.667 145.093 175.086 145.705 174.282 147.063V145.439H170.826V158.541H174.389V151.005Z" fill="black"/>
<path d="M191.002 141.524H187.787V143.362C187.787 144.533 187.144 145.439 185.751 145.439H185.081V148.581H187.465V154.679C187.465 157.209 189.073 158.727 191.645 158.727C192.689 158.727 193.332 158.541 193.654 158.408V155.478C193.466 155.532 192.984 155.585 192.555 155.585C191.537 155.585 191.002 155.212 191.002 154.067V148.581H193.654V145.439H191.002V141.524Z" fill="black"/>
<path d="M195.634 154.893C195.795 156.384 197.161 158.94 201.126 158.94C204.582 158.94 206.243 156.757 206.243 154.626C206.243 152.709 204.93 151.138 202.332 150.605L200.456 150.206C199.733 150.072 199.251 149.673 199.251 149.034C199.251 148.288 200.001 147.729 200.938 147.729C202.439 147.729 203.001 148.714 203.108 149.487L206.082 148.821C205.922 147.409 204.662 145.039 200.912 145.039C198.072 145.039 195.982 146.983 195.982 149.327C195.982 151.164 197.134 152.682 199.679 153.241L201.421 153.641C202.439 153.854 202.841 154.333 202.841 154.919C202.841 155.612 202.278 156.224 201.099 156.224C199.545 156.224 198.768 155.265 198.688 154.227L195.634 154.893Z" fill="black"/>
<path fill-rule="evenodd" clip-rule="evenodd" d="M233.375 91.4841C233.375 91.2397 233.175 91.0415 232.929 91.0415C232.683 91.0415 232.484 91.2397 232.484 91.4841V91.5121C232.484 91.7566 232.683 91.9548 232.929 91.9548C233.175 91.9548 233.375 91.7566 233.375 91.5121V91.4841ZM233.375 95.9945C233.375 95.7501 233.175 95.5519 232.929 95.5519C232.683 95.5519 232.484 95.7501 232.484 95.9945V96.0506C232.484 96.295 232.683 96.4932 232.929 96.4932C233.175 96.4932 233.375 96.295 233.375 96.0506V95.9945ZM233.375 100.533C233.375 100.289 233.175 100.09 232.929 100.09C232.683 100.09 232.484 100.289 232.484 100.533V100.589C232.484 100.833 232.683 101.032 232.929 101.032C233.175 101.032 233.375 100.833 233.375 100.589V100.533ZM233.375 105.071C233.375 104.827 233.175 104.629 232.929 104.629C232.683 104.629 232.484 104.827 232.484 105.071V105.099C232.484 105.344 232.683 105.542 232.929 105.542C233.175 105.542 233.375 105.344 233.375 105.099V105.071ZM233.375 127.463C233.375 127.218 233.175 127.02 232.929 127.02C232.683 127.02 232.484 127.218 232.484 127.463V127.493C232.484 127.737 232.683 127.935 232.929 127.935C233.175 127.935 233.375 127.737 233.375 127.493V127.463ZM233.375 132.276C233.375 132.032 233.175 131.834 232.929 131.834C232.683 131.834 232.484 132.032 232.484 132.276V132.336C232.484 132.58 232.683 132.779 232.929 132.779C233.175 132.779 233.375 132.58 233.375 132.336V132.276ZM233.375 137.119C233.375 136.875 233.175 136.677 232.929 136.677C232.683 136.677 232.484 136.875 232.484 137.119V137.179C232.484 137.424 232.683 137.622 232.929 137.622C233.175 137.622 233.375 137.424 233.375 137.179V137.119ZM233.375 141.963C233.375 141.718 233.175 141.52 232.929 141.52C232.683 141.52 232.484 141.718 232.484 141.963V142.022C232.484 142.267 232.683 142.465 232.929 142.465C233.175 142.465 233.375 142.267 233.375 142.022V141.963ZM233.375 146.806C233.375 146.561 233.175 146.363 232.929 146.363C232.683 146.363 232.484 146.561 232.484 146.806V146.836C232.484 147.08 232.683 147.278 232.929 147.278C233.175 147.278 233.375 147.08 233.375 146.836V146.806ZM263.481 116.91C263.481 117.154 263.281 117.352 263.035 117.352H263.009C262.763 117.352 262.563 117.154 262.563 116.91C262.563 116.665 262.763 116.467 263.009 116.467H263.035C263.281 116.467 263.481 116.665 263.481 116.91ZM259.143 116.91C259.143 117.154 258.944 117.352 258.698 117.352H258.644C258.398 117.352 258.199 117.154 258.199 116.91C258.199 116.665 258.398 116.467 258.644 116.467H258.698C258.944 116.467 259.143 116.665 259.143 116.91ZM254.779 116.91C254.779 117.154 254.579 117.352 254.333 117.352H254.28C254.034 117.352 253.834 117.154 253.834 116.91C253.834 116.665 254.034 116.467 254.28 116.467H254.333C254.579 116.467 254.779 116.665 254.779 116.91ZM250.414 116.91C250.414 117.154 250.215 117.352 249.969 117.352H249.915C249.669 117.352 249.47 117.154 249.47 116.91C249.47 116.665 249.669 116.467 249.915 116.467H249.969C250.215 116.467 250.414 116.665 250.414 116.91ZM246.05 116.91C246.05 117.154 245.85 117.352 245.604 117.352H245.55C245.305 117.352 245.105 117.154 245.105 116.91C245.105 116.665 245.305 116.467 245.55 116.467H245.604C245.85 116.467 246.05 116.665 246.05 116.91ZM241.685 116.91C241.685 117.154 241.486 117.352 241.24 117.352H241.213C240.967 117.352 240.768 117.154 240.768 116.91C240.768 116.665 240.967 116.467 241.213 116.467H241.24C241.486 116.467 241.685 116.665 241.685 116.91ZM224.836 117.352C225.082 117.352 225.281 117.154 225.281 116.91C225.281 116.665 225.082 116.467 224.836 116.467H224.809C224.563 116.467 224.364 116.665 224.364 116.91C224.364 117.154 224.563 117.352 224.809 117.352H224.836ZM220.461 117.352C220.707 117.352 220.906 117.154 220.906 116.91C220.906 116.665 220.707 116.467 220.461 116.467H220.406C220.16 116.467 219.961 116.665 219.961 116.91C219.961 117.154 220.16 117.352 220.406 117.352H220.461ZM216.058 117.352C216.304 117.352 216.503 117.154 216.503 116.91C216.503 116.665 216.304 116.467 216.058 116.467H216.004C215.758 116.467 215.558 116.665 215.558 116.91C215.558 117.154 215.758 117.352 216.004 117.352H216.058ZM211.655 117.352C211.901 117.352 212.101 117.154 212.101 116.91C212.101 116.665 211.901 116.467 211.655 116.467H211.601C211.355 116.467 211.156 116.665 211.156 116.91C211.156 117.154 211.355 117.352 211.601 117.352H211.655ZM207.253 117.352C207.498 117.352 207.698 117.154 207.698 116.91C207.698 116.665 207.498 116.467 207.253 116.467H207.198C206.952 116.467 206.753 116.665 206.753 116.91C206.753 117.154 206.952 117.352 207.198 117.352H207.253Z" fill="black" fill-opacity="0.3"/>
<path fill-rule="evenodd" clip-rule="evenodd" d="M232.899 86.5409H232.959C233.205 86.5411 233.404 86.7395 233.404 86.9839C233.403 87.2284 233.204 87.4264 232.958 87.4261H232.9C232.654 87.4264 232.455 87.2284 232.454 86.9839C232.454 86.7395 232.653 86.5411 232.899 86.5409ZM228.69 87.2747C228.728 87.5162 228.562 87.7426 228.319 87.7803L228.262 87.7892C228.019 87.8274 227.791 87.6626 227.753 87.4212C227.714 87.1797 227.88 86.953 228.123 86.9148L228.182 86.9057C228.425 86.8679 228.652 87.0332 228.69 87.2747ZM237.167 87.2747C237.205 87.0332 237.433 86.8679 237.676 86.9057L237.735 86.9148C237.978 86.953 238.143 87.1797 238.105 87.4212C238.067 87.6626 237.839 87.8274 237.596 87.7892L237.539 87.7803C237.296 87.7426 237.129 87.5162 237.167 87.2747ZM241.777 88.2943C241.852 88.0617 242.103 87.9342 242.337 88.0095L242.394 88.0277C242.627 88.1034 242.755 88.3532 242.679 88.5856C242.603 88.8181 242.352 88.9451 242.118 88.8694L242.063 88.8517C241.829 88.7764 241.701 88.5269 241.777 88.2943ZM224.081 88.2943C224.157 88.5269 224.029 88.7764 223.795 88.8517L223.74 88.8694C223.506 88.9451 223.255 88.8181 223.179 88.5856C223.103 88.3532 223.23 88.1034 223.464 88.0277L223.521 88.0095C223.755 87.9342 224.006 88.0617 224.081 88.2943ZM246.166 90.0229C246.278 89.8051 246.546 89.7184 246.765 89.8294L246.818 89.8561C247.036 89.9675 247.123 90.2342 247.011 90.4518C246.899 90.6694 246.631 90.7555 246.412 90.6442L246.361 90.6182C246.141 90.5072 246.054 90.2407 246.166 90.0229ZM219.692 90.0229C219.804 90.2407 219.716 90.5072 219.497 90.6182L219.446 90.6442C219.227 90.7555 218.959 90.6694 218.847 90.4518C218.735 90.2342 218.821 89.9675 219.04 89.8561L219.093 89.8294C219.312 89.7184 219.58 89.8051 219.692 90.0229ZM215.63 92.4151C215.775 92.6129 215.731 92.8897 215.532 93.0334L215.485 93.067C215.286 93.211 215.008 93.1677 214.863 92.9702C214.718 92.7727 214.762 92.4958 214.96 92.3517L215.008 92.3171C215.207 92.1735 215.486 92.2174 215.63 92.4151ZM250.228 92.4151C250.372 92.2174 250.651 92.1735 250.85 92.3171L250.897 92.3517C251.096 92.4958 251.14 92.7727 250.995 92.9702C250.85 93.1677 250.571 93.211 250.373 93.067L250.326 93.0334C250.127 92.8897 250.083 92.6129 250.228 92.4151ZM211.994 95.4083C212.167 95.5813 212.167 95.8616 211.993 96.0343L211.952 96.0747C211.779 96.2477 211.497 96.2479 211.323 96.0753C211.149 95.9026 211.148 95.6223 211.322 95.4493L211.364 95.4077C211.538 95.235 211.82 95.2353 211.994 95.4083ZM253.864 95.4083C254.038 95.2353 254.32 95.235 254.494 95.4077L254.536 95.4493C254.709 95.6223 254.709 95.9026 254.535 96.0753C254.361 96.2479 254.079 96.2477 253.905 96.0747L253.865 96.0343C253.691 95.8616 253.69 95.5813 253.864 95.4083ZM208.87 98.9273C209.069 99.0713 209.112 99.3482 208.967 99.5457L208.934 99.5919C208.789 99.7897 208.511 99.8336 208.312 99.6899C208.113 99.5463 208.068 99.2695 208.213 99.0717L208.248 99.0241C208.393 98.8266 208.671 98.7833 208.87 98.9273ZM256.988 98.9273C257.187 98.7833 257.465 98.8266 257.61 99.0241L257.645 99.0717C257.789 99.2695 257.745 99.5463 257.546 99.6899C257.347 99.8336 257.069 99.7897 256.924 99.5919L256.89 99.5457C256.746 99.3482 256.789 99.0713 256.988 98.9273ZM259.521 102.887C259.74 102.776 260.009 102.862 260.121 103.08L260.148 103.132C260.259 103.35 260.172 103.616 259.953 103.727C259.734 103.838 259.466 103.752 259.354 103.534L259.328 103.483C259.216 103.265 259.303 102.999 259.521 102.887ZM261.399 107.193C261.633 107.118 261.884 107.245 261.96 107.477L261.978 107.533C262.054 107.766 261.926 108.015 261.692 108.09C261.458 108.166 261.207 108.038 261.131 107.806L261.113 107.751C261.037 107.519 261.165 107.269 261.399 107.193ZM262.57 111.74C262.813 111.702 263.041 111.867 263.08 112.108L263.089 112.166C263.127 112.408 262.961 112.634 262.718 112.672C262.475 112.71 262.247 112.544 262.209 112.303L262.2 112.246C262.162 112.005 262.327 111.778 262.57 111.74ZM263.01 116.413C263.256 116.413 263.456 116.611 263.456 116.855V116.915C263.456 117.159 263.256 117.357 263.01 117.357C262.764 117.357 262.565 117.158 262.565 116.914V116.856C262.565 116.612 262.764 116.414 263.01 116.413ZM262.718 121.098C262.961 121.136 263.127 121.362 263.089 121.604L263.08 121.662C263.041 121.904 262.813 122.068 262.57 122.03C262.327 121.992 262.162 121.765 262.2 121.524L262.209 121.467C262.247 121.226 262.475 121.06 262.718 121.098ZM261.692 125.68C261.926 125.755 262.054 126.004 261.978 126.237L261.96 126.293C261.884 126.526 261.633 126.653 261.399 126.577C261.165 126.501 261.037 126.251 261.113 126.019L261.131 125.964C261.207 125.732 261.458 125.604 261.692 125.68ZM205.905 130.043C206.124 129.932 206.392 130.018 206.504 130.236L206.53 130.287C206.642 130.505 206.555 130.771 206.336 130.883C206.117 130.994 205.849 130.908 205.737 130.69L205.71 130.638C205.599 130.42 205.686 130.154 205.905 130.043ZM259.953 130.043C260.172 130.154 260.259 130.42 260.148 130.638L260.121 130.69C260.009 130.908 259.74 130.994 259.521 130.883C259.303 130.771 259.216 130.505 259.328 130.287L259.354 130.236C259.466 130.018 259.734 129.932 259.953 130.043ZM208.312 134.08C208.511 133.937 208.789 133.98 208.934 134.178L208.967 134.224C209.112 134.422 209.069 134.699 208.87 134.843C208.671 134.987 208.393 134.943 208.248 134.746L208.213 134.698C208.068 134.501 208.113 134.224 208.312 134.08ZM257.546 134.08C257.745 134.224 257.789 134.501 257.645 134.698L257.61 134.746C257.465 134.943 257.187 134.987 256.988 134.843C256.789 134.699 256.746 134.422 256.89 134.224L256.924 134.178C257.069 133.98 257.347 133.937 257.546 134.08ZM211.323 137.695C211.497 137.522 211.779 137.522 211.952 137.695L211.993 137.736C212.167 137.909 212.167 138.189 211.994 138.362C211.82 138.535 211.538 138.535 211.364 138.362L211.322 138.321C211.148 138.148 211.149 137.868 211.323 137.695ZM254.535 137.695C254.709 137.868 254.709 138.148 254.536 138.321L254.494 138.362C254.32 138.535 254.038 138.535 253.864 138.362C253.69 138.189 253.691 137.909 253.865 137.736L253.905 137.695C254.079 137.522 254.361 137.522 254.535 137.695ZM214.863 140.8C215.008 140.602 215.286 140.559 215.485 140.703L215.532 140.737C215.731 140.88 215.775 141.157 215.63 141.355C215.486 141.553 215.207 141.597 215.008 141.453L214.96 141.418C214.762 141.274 214.718 140.997 214.863 140.8ZM250.995 140.8C251.14 140.997 251.096 141.274 250.897 141.418L250.85 141.453C250.651 141.597 250.372 141.553 250.228 141.355C250.083 141.157 250.127 140.88 250.326 140.737L250.373 140.703C250.571 140.559 250.85 140.602 250.995 140.8ZM218.847 143.318C218.959 143.101 219.227 143.015 219.446 143.126L219.497 143.152C219.716 143.263 219.804 143.529 219.692 143.747C219.58 143.965 219.312 144.052 219.093 143.941L219.04 143.914C218.821 143.803 218.735 143.536 218.847 143.318ZM247.011 143.318C247.123 143.536 247.036 143.803 246.818 143.914L246.765 143.941C246.546 144.052 246.278 143.965 246.166 143.747C246.054 143.529 246.141 143.263 246.361 143.152L246.412 143.126C246.631 143.015 246.899 143.101 247.011 143.318ZM223.179 145.184C223.255 144.952 223.506 144.825 223.74 144.901L223.795 144.918C224.029 144.994 224.157 145.243 224.081 145.476C224.006 145.708 223.755 145.836 223.521 145.761L223.464 145.742C223.23 145.667 223.103 145.417 223.179 145.184ZM242.679 145.184C242.755 145.417 242.627 145.667 242.394 145.742L242.337 145.761C242.103 145.836 241.852 145.708 241.777 145.476C241.701 145.243 241.829 144.994 242.063 144.918L242.118 144.901C242.352 144.825 242.603 144.952 242.679 145.184ZM227.753 146.349C227.791 146.107 228.019 145.943 228.262 145.981L228.319 145.99C228.562 146.028 228.728 146.254 228.69 146.495C228.652 146.737 228.425 146.902 228.182 146.864L228.123 146.855C227.88 146.817 227.714 146.59 227.753 146.349ZM238.105 146.349C238.143 146.59 237.978 146.817 237.735 146.855L237.676 146.864C237.433 146.902 237.205 146.737 237.167 146.495C237.129 146.254 237.296 146.028 237.539 145.99L237.596 145.981C237.839 145.943 238.067 146.107 238.105 146.349ZM232.454 146.786C232.455 146.542 232.654 146.344 232.9 146.344H232.958C233.204 146.344 233.403 146.542 233.404 146.786C233.404 147.031 233.205 147.229 232.959 147.229H232.899C232.653 147.229 232.454 147.031 232.454 146.786Z" fill="black"/>
<path d="M233.918 86.9836C233.918 87.5268 233.475 87.9672 232.929 87.9672C232.382 87.9672 231.939 87.5268 231.939 86.9836C231.939 86.4403 232.382 86 232.929 86C233.475 86 233.918 86.4403 233.918 86.9836Z" fill="black"/>
<path d="M233.918 146.787C233.918 147.33 233.475 147.77 232.929 147.77C232.382 147.77 231.939 147.33 231.939 146.787C231.939 146.243 232.382 145.803 232.929 145.803C233.475 145.803 233.918 146.243 233.918 146.787Z" fill="black"/>
<path d="M263.011 117.869C262.464 117.869 262.021 117.428 262.021 116.885C262.021 116.342 262.464 115.902 263.011 115.902C263.557 115.902 264 116.342 264 116.885C264 117.428 263.557 117.869 263.011 117.869Z" fill="black"/>
<path fill-rule="evenodd" clip-rule="evenodd" d="M241.572 98.4478H249.779L223.357 135.232H215.287L241.572 98.4478ZM231.932 109.287L224.198 98.4478H215.959L227.897 115.199L231.932 109.287ZM229.908 109.308L227.867 112.299L219.174 100.1H223.339L229.908 109.308ZM218.507 133.579H222.501L246.549 100.1H242.431L218.507 133.579Z" fill="black"/>
<path fill-rule="evenodd" clip-rule="evenodd" d="M243.226 133.464C243.32 133.593 243.47 133.67 243.631 133.67H247.366L238.411 121.03C238.212 120.748 237.793 120.749 237.595 121.031L236.136 123.103C236.013 123.278 236.014 123.511 236.14 123.684L243.226 133.464ZM233.891 123.409L242.524 135.323H250.57L237.998 117.577L233.891 123.409Z" fill="black"/>
<path fill-rule="evenodd" clip-rule="evenodd" d="M157.217 98.4478H150.163V109.393C148.126 108.31 145.787 107.694 143.3 107.694C135.404 107.694 129.002 113.903 129.002 121.563C129.002 129.222 135.404 135.431 143.3 135.431C145.787 135.431 148.126 134.815 150.163 133.732V135.101H157.217V98.4478ZM151.323 121.489C151.323 125.828 147.697 129.344 143.225 129.344C138.753 129.344 135.127 125.828 135.127 121.489C135.127 117.151 138.753 113.635 143.225 113.635C147.697 113.635 151.323 117.151 151.323 121.489ZM185.797 98.4478L159.568 135.101H167.791L193.995 98.4478H185.797ZM206.257 98.4478H213.31V135.101H206.257V133.732C204.22 134.815 201.881 135.431 199.394 135.431C191.497 135.431 185.096 129.222 185.096 121.563C185.096 113.903 191.497 107.694 199.394 107.694C201.881 107.694 204.22 108.31 206.257 109.393V98.4478ZM199.318 129.344C203.791 129.344 207.416 125.828 207.416 121.489C207.416 117.151 203.791 113.635 199.318 113.635C194.846 113.635 191.22 117.151 191.22 121.489C191.22 125.828 194.846 129.344 199.318 129.344ZM176.027 109.576L167.798 98.4478H159.232L171.492 115.794L176.027 109.576Z" fill="black"/>
<rect x="332" y="16" width="44" height="44" rx="22" fill="#393953"/>
<g clip-path="url(#clip0_2352_29150)">
<path d="M350.667 42.1667L354 45.5L357.333 42.1667" stroke="white" stroke-width="2" stroke-linecap="round" stroke-linejoin="round"/>
<path d="M354 38V45.5" stroke="white" stroke-width="2" stroke-linecap="round" stroke-linejoin="round"/>
<path d="M361.399 43.0749C362.124 42.5655 362.667 41.8384 362.95 40.9992C363.234 40.1601 363.242 39.2525 362.975 38.4081C362.707 37.5638 362.178 36.8267 361.463 36.3037C360.748 35.7808 359.885 35.4993 358.999 35.4999H357.949C357.699 34.5232 357.23 33.616 356.578 32.8467C355.926 32.0774 355.108 31.466 354.185 31.0586C353.263 30.6512 352.26 30.4583 351.252 30.4945C350.245 30.5308 349.258 30.7952 348.367 31.2678C347.476 31.7404 346.705 32.409 346.109 33.2231C345.514 34.0373 345.112 34.9758 344.932 35.9681C344.752 36.9603 344.8 37.9804 345.071 38.9516C345.343 39.9228 345.831 40.8198 346.499 41.5749" stroke="white" stroke-width="2" stroke-linecap="round" stroke-linejoin="round"/>
</g>
<defs>
<clipPath id="clip0_2352_29150">
<rect width="20" height="20" fill="white" transform="translate(344 28)"/>
</clipPath>
</defs>
</svg>
