<svg width="254" height="180" viewBox="0 0 254 180" fill="none" xmlns="http://www.w3.org/2000/svg">
<g clip-path="url(#clip0_2352_29162)">
<rect x="0.5" width="253" height="180" rx="16" fill="white"/>
<rect x="83" y="46" width="88" height="88" rx="44" fill="#1A1A27"/>
<path fill-rule="evenodd" clip-rule="evenodd" d="M137.223 67.7148H147.032L115.45 111.948H105.803L137.223 67.7148ZM125.699 80.7488L116.455 67.7148H106.607L120.876 87.8583L125.699 80.7488ZM123.281 80.774L120.841 84.3709L110.45 69.7019H115.428L123.281 80.774ZM109.652 109.961H114.427L143.172 69.7019H138.249L109.652 109.961Z" fill="white"/>
<path fill-rule="evenodd" clip-rule="evenodd" d="M139.378 110.07H144.149L132.956 94.1758L130.479 97.7143L139.378 110.07ZM128.042 97.7307L138.361 112.057H147.978L132.951 90.7177L128.042 97.7307Z" fill="url(#paint0_linear_2352_29162)"/>
<path fill-rule="evenodd" clip-rule="evenodd" d="M127.424 59.3407C127.424 59.0468 127.185 58.8085 126.891 58.8085C126.598 58.8085 126.359 59.0468 126.359 59.3407V59.3744C126.359 59.6684 126.598 59.9067 126.891 59.9067C127.185 59.9067 127.424 59.6684 127.424 59.3744V59.3407ZM127.424 64.7646C127.424 64.4706 127.185 64.2323 126.891 64.2323C126.598 64.2323 126.359 64.4706 126.359 64.7646V64.8319C126.359 65.1259 126.598 65.3642 126.891 65.3642C127.185 65.3642 127.424 65.1259 127.424 64.8319V64.7646ZM127.424 70.2221C127.424 69.9281 127.185 69.6898 126.891 69.6898C126.598 69.6898 126.359 69.9281 126.359 70.2221V70.2894C126.359 70.5834 126.598 70.8217 126.891 70.8217C127.185 70.8217 127.424 70.5834 127.424 70.2894V70.2221ZM127.424 75.6796C127.424 75.3856 127.185 75.1473 126.891 75.1473C126.598 75.1473 126.359 75.3856 126.359 75.6796V75.7133C126.359 76.0072 126.598 76.2455 126.891 76.2455C127.185 76.2455 127.424 76.0072 127.424 75.7133V75.6796ZM127.424 102.605C127.424 102.311 127.185 102.073 126.891 102.073C126.598 102.073 126.359 102.311 126.359 102.605V102.641C126.359 102.935 126.598 103.174 126.891 103.174C127.185 103.174 127.424 102.935 127.424 102.641V102.605ZM127.424 108.393C127.424 108.1 127.185 107.861 126.891 107.861C126.598 107.861 126.359 108.1 126.359 108.393V108.465C126.359 108.759 126.598 108.998 126.891 108.998C127.185 108.998 127.424 108.759 127.424 108.465V108.393ZM127.424 114.217C127.424 113.924 127.185 113.685 126.891 113.685C126.598 113.685 126.359 113.924 126.359 114.217V114.289C126.359 114.583 126.598 114.822 126.891 114.822C127.185 114.822 127.424 114.583 127.424 114.289V114.217ZM127.424 120.041C127.424 119.748 127.185 119.509 126.891 119.509C126.598 119.509 126.359 119.748 126.359 120.041V120.113C126.359 120.407 126.598 120.646 126.891 120.646C127.185 120.646 127.424 120.407 127.424 120.113V120.041ZM127.424 125.866C127.424 125.572 127.185 125.333 126.891 125.333C126.598 125.333 126.359 125.572 126.359 125.866V125.901C126.359 126.195 126.598 126.434 126.891 126.434C127.185 126.434 127.424 126.195 127.424 125.901V125.866ZM163.41 89.9151C163.41 90.209 163.172 90.4473 162.878 90.4473H162.846C162.552 90.4473 162.313 90.209 162.313 89.9151C162.313 89.6211 162.552 89.3828 162.846 89.3828H162.878C163.172 89.3828 163.41 89.6211 163.41 89.9151ZM158.225 89.9151C158.225 90.209 157.987 90.4473 157.693 90.4473H157.629C157.335 90.4473 157.096 90.209 157.096 89.9151C157.096 89.6211 157.335 89.3828 157.629 89.3828H157.693C157.987 89.3828 158.225 89.6211 158.225 89.9151ZM153.008 89.9151C153.008 90.209 152.77 90.4473 152.476 90.4473H152.412C152.118 90.4473 151.879 90.209 151.879 89.9151C151.879 89.6211 152.118 89.3828 152.412 89.3828H152.476C152.77 89.3828 153.008 89.6211 153.008 89.9151ZM147.791 89.9151C147.791 90.209 147.553 90.4473 147.259 90.4473H147.195C146.901 90.4473 146.662 90.209 146.662 89.9151C146.662 89.6211 146.901 89.3828 147.195 89.3828H147.259C147.553 89.3828 147.791 89.6211 147.791 89.9151ZM142.574 89.9151C142.574 90.209 142.336 90.4473 142.042 90.4473H141.978C141.684 90.4473 141.446 90.209 141.446 89.9151C141.446 89.6211 141.684 89.3828 141.978 89.3828H142.042C142.336 89.3828 142.574 89.6211 142.574 89.9151ZM137.357 89.9151C137.357 90.209 137.119 90.4473 136.825 90.4473H136.793C136.499 90.4473 136.261 90.209 136.261 89.9151C136.261 89.6211 136.499 89.3828 136.793 89.3828H136.825C137.119 89.3828 137.357 89.6211 137.357 89.9151ZM117.218 90.4473C117.512 90.4473 117.75 90.209 117.75 89.9151C117.75 89.6211 117.512 89.3828 117.218 89.3828H117.185C116.891 89.3828 116.653 89.6211 116.653 89.9151C116.653 90.209 116.891 90.4473 117.185 90.4473H117.218ZM111.988 90.4473C112.281 90.4473 112.52 90.209 112.52 89.9151C112.52 89.6211 112.281 89.3828 111.988 89.3828H111.923C111.629 89.3828 111.39 89.6211 111.39 89.9151C111.39 90.209 111.629 90.4473 111.923 90.4473H111.988ZM106.725 90.4473C107.019 90.4473 107.257 90.209 107.257 89.9151C107.257 89.6211 107.019 89.3828 106.725 89.3828H106.66C106.366 89.3828 106.128 89.6211 106.128 89.9151C106.128 90.209 106.366 90.4473 106.66 90.4473H106.725ZM101.462 90.4473C101.756 90.4473 101.995 90.209 101.995 89.9151C101.995 89.6211 101.756 89.3828 101.462 89.3828H101.397C101.103 89.3828 100.865 89.6211 100.865 89.9151C100.865 90.209 101.103 90.4473 101.397 90.4473H101.462ZM96.1999 90.4473C96.4938 90.4473 96.7321 90.209 96.7321 89.9151C96.7321 89.6211 96.4938 89.3828 96.1999 89.3828H96.1349C95.8409 89.3828 95.6026 89.6211 95.6026 89.9151C95.6026 90.209 95.8409 90.4473 96.1349 90.4473H96.1999ZM90.9373 90.4473C91.2313 90.4473 91.4696 90.209 91.4696 89.9151C91.4696 89.6211 91.2313 89.3828 90.9373 89.3828H90.9048C90.6109 89.3828 90.3726 89.6211 90.3726 89.9151C90.3726 90.209 90.6109 90.4473 90.9048 90.4473H90.9373Z" fill="#55555E"/>
<path fill-rule="evenodd" clip-rule="evenodd" d="M126.856 53.3965H126.927C127.221 53.3968 127.459 53.6354 127.458 53.9293C127.458 54.2233 127.22 54.4613 126.926 54.4611H126.857C126.563 54.4613 126.324 54.2233 126.324 53.9293C126.323 53.6354 126.562 53.3968 126.856 53.3965ZM121.825 54.2789C121.87 54.5694 121.671 54.8416 121.381 54.8869L121.313 54.8976C121.023 54.9436 120.75 54.7454 120.704 54.4551C120.658 54.1647 120.856 53.8921 121.147 53.8462L121.217 53.8352C121.507 53.7898 121.779 53.9885 121.825 54.2789ZM131.957 54.2789C132.003 53.9885 132.275 53.7898 132.565 53.8352L132.636 53.8462C132.926 53.8921 133.124 54.1647 133.078 54.4551C133.032 54.7454 132.76 54.9436 132.469 54.8976L132.401 54.8869C132.111 54.8416 131.912 54.5694 131.957 54.2789ZM137.467 55.505C137.557 55.2254 137.857 55.072 138.137 55.1625L138.204 55.1844C138.484 55.2755 138.637 55.5759 138.546 55.8554C138.455 56.1349 138.154 56.2876 137.875 56.1966L137.809 56.1753C137.53 56.0848 137.376 55.7847 137.467 55.505ZM116.315 55.505C116.406 55.7847 116.253 56.0848 115.973 56.1753L115.908 56.1966C115.628 56.2876 115.328 56.1349 115.237 55.8554C115.146 55.5759 115.298 55.2755 115.578 55.1844L115.645 55.1625C115.925 55.072 116.225 55.2254 116.315 55.505ZM142.713 57.5837C142.847 57.3217 143.167 57.2176 143.429 57.351L143.492 57.3831C143.754 57.5171 143.858 57.8378 143.724 58.0994C143.59 58.3611 143.269 58.4647 143.007 58.3308L142.946 58.2995C142.684 58.1661 142.58 57.8456 142.713 57.5837ZM111.069 57.5837C111.202 57.8456 111.098 58.1661 110.836 58.2995L110.775 58.3308C110.513 58.4647 110.192 58.3611 110.059 58.0994C109.925 57.8378 110.028 57.5171 110.29 57.3831L110.353 57.351C110.615 57.2176 110.935 57.3217 111.069 57.5837ZM106.214 60.4604C106.387 60.6983 106.334 61.0311 106.096 61.2039L106.04 61.2443C105.803 61.4175 105.47 61.3653 105.297 61.1278C105.123 60.8903 105.176 60.5574 105.413 60.3842L105.47 60.3425C105.708 60.1698 106.041 60.2226 106.214 60.4604ZM147.568 60.4604C147.741 60.2226 148.074 60.1698 148.312 60.3425L148.369 60.3842C148.607 60.5574 148.659 60.8903 148.486 61.1278C148.312 61.3653 147.979 61.4175 147.742 61.2443L147.686 61.2039C147.448 61.0311 147.396 60.6983 147.568 60.4604ZM101.867 64.0597C102.075 64.2678 102.074 64.6048 101.866 64.8124L101.818 64.861C101.61 65.0691 101.273 65.0694 101.065 64.8617C100.857 64.6541 100.857 64.3171 101.064 64.109L101.114 64.059C101.322 63.8513 101.659 63.8516 101.867 64.0597ZM151.915 64.0597C152.123 63.8516 152.46 63.8513 152.668 64.059L152.718 64.109C152.926 64.3171 152.925 64.6541 152.717 64.8617C152.509 65.0694 152.172 65.0691 151.964 64.861L151.916 64.8124C151.708 64.6048 151.707 64.2678 151.915 64.0597ZM98.1331 68.2914C98.3707 68.4646 98.4228 68.7975 98.2496 69.035L98.2092 69.0906C98.0364 69.3284 97.7036 69.3812 97.4657 69.2084C97.2279 69.0357 97.1751 68.7028 97.3479 68.465L97.3895 68.4078C97.5627 68.1703 97.8956 68.1182 98.1331 68.2914ZM155.649 68.2914C155.887 68.1182 156.22 68.1703 156.393 68.4078L156.434 68.465C156.607 68.7028 156.554 69.0357 156.316 69.2084C156.079 69.3812 155.746 69.3284 155.573 69.0906L155.533 69.035C155.359 68.7975 155.412 68.4646 155.649 68.2914ZM158.677 73.0532C158.939 72.9193 159.26 73.0229 159.394 73.2846L159.426 73.3476C159.559 73.6095 159.455 73.93 159.193 74.0634C158.931 74.1969 158.611 74.0927 158.477 73.8307L158.446 73.7695C158.312 73.5078 158.416 73.1872 158.677 73.0532ZM95.1048 73.0532C95.3664 73.1872 95.47 73.5079 95.3361 73.7695L95.3048 73.8307C95.1714 74.0927 94.8509 74.1969 94.589 74.0634C94.3271 73.93 94.2229 73.6095 94.3563 73.3476L94.3885 73.2846C94.5224 73.0229 94.8431 72.9193 95.1048 73.0532ZM92.8607 78.2313C93.1402 78.3224 93.293 78.6228 93.2019 78.9023L93.1806 78.9677C93.0901 79.2474 92.79 79.4007 92.5104 79.3102C92.2307 79.2197 92.0773 78.9196 92.1678 78.6399L92.1897 78.5725C92.2808 78.293 92.5812 78.1402 92.8607 78.2313ZM160.921 78.2313C161.201 78.1402 161.501 78.293 161.592 78.5725L161.614 78.6399C161.705 78.9196 161.552 79.2197 161.272 79.3102C160.992 79.4007 160.692 79.2474 160.602 78.9677L160.58 78.9023C160.489 78.6228 160.642 78.3224 160.921 78.2313ZM91.4604 83.6987C91.7507 83.7446 91.9489 84.0172 91.903 84.3076L91.8923 84.3757C91.8469 84.6661 91.5747 84.8648 91.2843 84.8195C90.9938 84.7741 90.7951 84.5019 90.8405 84.2115L90.8515 84.1413C90.8974 83.8509 91.17 83.6528 91.4604 83.6987ZM162.322 83.6987C162.612 83.6528 162.885 83.851 162.931 84.1413L162.942 84.2115C162.987 84.5019 162.788 84.7741 162.498 84.8195C162.207 84.8648 161.935 84.6661 161.89 84.3757L161.879 84.3076C161.833 84.0172 162.031 83.7446 162.322 83.6987ZM90.9346 89.3185C91.2286 89.3187 91.4667 89.5573 91.4664 89.8512V89.9203C91.4667 90.2143 91.2286 90.4528 90.9346 90.4531C90.6407 90.4534 90.4021 90.2153 90.4019 89.9214V89.8502C90.4021 89.5563 90.6407 89.3182 90.9346 89.3185ZM162.848 89.3185C163.142 89.3182 163.38 89.5563 163.38 89.8502V89.9214C163.38 90.2153 163.142 90.4534 162.848 90.4531C162.554 90.4528 162.316 90.2143 162.316 89.9203V89.8512C162.316 89.5573 162.554 89.3187 162.848 89.3185ZM91.2843 94.9521C91.5747 94.9068 91.8469 95.1054 91.8923 95.3959L91.903 95.464C91.9489 95.7543 91.7507 96.0269 91.4604 96.0728C91.17 96.1188 90.8974 95.9206 90.8515 95.6303L90.8405 95.5601C90.7951 95.2697 90.9938 94.9975 91.2843 94.9521ZM162.498 94.9521C162.788 94.9975 162.987 95.2697 162.942 95.5601L162.931 95.6303C162.885 95.9206 162.612 96.1188 162.322 96.0728C162.031 96.0269 161.833 95.7543 161.879 95.464L161.89 95.3959C161.935 95.1054 162.207 94.9068 162.498 94.9521ZM92.5104 100.461C92.79 100.371 93.0901 100.524 93.1806 100.804L93.2019 100.869C93.293 101.149 93.1402 101.449 92.8607 101.54C92.5812 101.631 92.2808 101.479 92.1897 101.199L92.1678 101.132C92.0773 100.852 92.2307 100.552 92.5104 100.461ZM161.272 100.461C161.552 100.552 161.705 100.852 161.614 101.132L161.592 101.199C161.501 101.479 161.201 101.631 160.921 101.54C160.642 101.449 160.489 101.149 160.58 100.869L160.602 100.804C160.692 100.524 160.992 100.371 161.272 100.461ZM94.589 105.708C94.8509 105.575 95.1714 105.679 95.3048 105.941L95.3361 106.002C95.47 106.264 95.3664 106.584 95.1048 106.718C94.8431 106.852 94.5224 106.749 94.3885 106.487L94.3563 106.424C94.2229 106.162 94.3271 105.842 94.589 105.708ZM159.193 105.708C159.455 105.842 159.559 106.162 159.426 106.424L159.394 106.487C159.26 106.749 158.939 106.852 158.677 106.718C158.416 106.584 158.312 106.264 158.446 106.002L158.477 105.941C158.611 105.679 158.931 105.575 159.193 105.708ZM97.4657 110.563C97.7036 110.39 98.0364 110.443 98.2092 110.681L98.2496 110.737C98.4228 110.974 98.3707 111.307 98.1331 111.48C97.8956 111.653 97.5627 111.601 97.3895 111.364L97.3478 111.307C97.1751 111.069 97.2279 110.736 97.4657 110.563ZM156.316 110.563C156.554 110.736 156.607 111.069 156.434 111.307L156.393 111.364C156.22 111.601 155.887 111.653 155.649 111.48C155.412 111.307 155.359 110.974 155.533 110.737L155.573 110.681C155.746 110.443 156.079 110.39 156.316 110.563ZM101.065 114.91C101.273 114.702 101.61 114.702 101.818 114.911L101.866 114.959C102.074 115.167 102.075 115.504 101.867 115.712C101.659 115.92 101.322 115.92 101.114 115.713L101.064 115.663C100.857 115.454 100.857 115.117 101.065 114.91ZM152.717 114.91C152.925 115.117 152.926 115.454 152.718 115.663L152.668 115.713C152.46 115.92 152.123 115.92 151.915 115.712C151.707 115.504 151.708 115.167 151.916 114.959L151.964 114.911C152.172 114.702 152.509 114.702 152.717 114.91ZM105.297 118.644C105.47 118.406 105.803 118.354 106.04 118.527L106.096 118.568C106.334 118.74 106.386 119.073 106.214 119.311C106.041 119.549 105.708 119.602 105.47 119.429L105.413 119.387C105.176 119.214 105.123 118.881 105.297 118.644ZM148.486 118.644C148.659 118.881 148.607 119.214 148.369 119.387L148.312 119.429C148.074 119.602 147.741 119.549 147.568 119.311C147.396 119.073 147.448 118.74 147.686 118.568L147.742 118.527C147.979 118.354 148.312 118.406 148.486 118.644ZM110.059 121.672C110.192 121.41 110.513 121.307 110.775 121.441L110.836 121.472C111.098 121.605 111.202 121.926 111.069 122.188C110.935 122.45 110.615 122.554 110.353 122.421L110.29 122.388C110.028 122.255 109.925 121.934 110.059 121.672ZM143.724 121.672C143.858 121.934 143.754 122.254 143.492 122.388L143.429 122.421C143.167 122.554 142.847 122.45 142.713 122.188C142.58 121.926 142.684 121.605 142.946 121.472L143.007 121.441C143.269 121.307 143.59 121.41 143.724 121.672ZM115.237 123.916C115.328 123.637 115.628 123.484 115.908 123.575L115.973 123.596C116.253 123.687 116.406 123.987 116.315 124.267C116.225 124.546 115.925 124.7 115.645 124.609L115.578 124.587C115.298 124.496 115.146 124.196 115.237 123.916ZM138.546 123.916C138.637 124.196 138.484 124.496 138.204 124.587L138.137 124.609C137.857 124.7 137.557 124.546 137.467 124.267C137.376 123.987 137.53 123.687 137.809 123.596L137.875 123.575C138.154 123.484 138.455 123.637 138.546 123.916ZM120.704 125.317C120.75 125.026 121.023 124.828 121.313 124.874L121.381 124.885C121.671 124.93 121.87 125.202 121.825 125.493C121.779 125.783 121.507 125.982 121.217 125.936L121.147 125.925C120.856 125.879 120.658 125.607 120.704 125.317ZM133.078 125.317C133.124 125.607 132.926 125.879 132.636 125.925L132.565 125.936C132.275 125.982 132.003 125.783 131.957 125.493C131.912 125.202 132.111 124.93 132.401 124.885L132.469 124.874C132.76 124.828 133.032 125.026 133.078 125.317ZM126.324 125.842C126.324 125.548 126.563 125.31 126.857 125.311H126.926C127.22 125.31 127.458 125.548 127.458 125.842C127.459 126.136 127.221 126.375 126.927 126.375H126.856C126.562 126.375 126.323 126.136 126.324 125.842Z" fill="white"/>
<path d="M128.074 125.843C128.074 126.496 127.545 127.026 126.891 127.026C126.238 127.026 125.709 126.496 125.709 125.843C125.709 125.19 126.238 124.66 126.891 124.66C127.545 124.66 128.074 125.19 128.074 125.843Z" fill="#6966FF"/>
<path d="M162.848 91.0687C162.195 91.0687 161.665 90.5391 161.665 89.8859C161.665 89.2326 162.195 88.7031 162.848 88.7031C163.501 88.7031 164.031 89.2326 164.031 89.8859C164.031 90.5391 163.501 91.0687 162.848 91.0687Z" fill="#6966FF"/>
<path d="M128.074 53.9287C128.074 54.5819 127.545 55.1115 126.891 55.1115C126.238 55.1115 125.709 54.5819 125.709 53.9287C125.709 53.2754 126.238 52.7459 126.891 52.7459C127.545 52.7459 128.074 53.2754 128.074 53.9287Z" fill="#6966FF"/>
<path d="M90.9343 91.0687C90.281 91.0687 89.7515 90.5391 89.7515 89.8859C89.7515 89.2326 90.281 88.7031 90.9343 88.7031C91.5875 88.7031 92.1171 89.2326 92.1171 89.8859C92.1171 90.5391 91.5875 91.0687 90.9343 91.0687Z" fill="#6966FF"/>
<rect x="193" y="16" width="44" height="44" rx="22" fill="#393953"/>
<g clip-path="url(#clip1_2352_29162)">
<path d="M211.667 42.1667L215 45.5L218.333 42.1667" stroke="white" stroke-width="2" stroke-linecap="round" stroke-linejoin="round"/>
<path d="M215 38V45.5" stroke="white" stroke-width="2" stroke-linecap="round" stroke-linejoin="round"/>
<path d="M222.399 43.0749C223.124 42.5655 223.667 41.8384 223.95 40.9992C224.234 40.1601 224.242 39.2525 223.975 38.4081C223.707 37.5638 223.178 36.8267 222.463 36.3037C221.748 35.7808 220.885 35.4993 219.999 35.4999H218.949C218.699 34.5232 218.23 33.616 217.578 32.8467C216.926 32.0774 216.108 31.466 215.185 31.0586C214.263 30.6512 213.26 30.4583 212.252 30.4945C211.245 30.5308 210.258 30.7952 209.367 31.2678C208.476 31.7404 207.705 32.409 207.109 33.2231C206.514 34.0373 206.112 34.9758 205.932 35.9681C205.752 36.9603 205.8 37.9804 206.071 38.9516C206.343 39.9228 206.831 40.8198 207.499 41.5749" stroke="white" stroke-width="2" stroke-linecap="round" stroke-linejoin="round"/>
</g>
</g>
<rect x="1" y="0.5" width="252" height="179" rx="15.5" stroke="#393953"/>
<defs>
<linearGradient id="paint0_linear_2352_29162" x1="140.528" y1="108.699" x2="124.632" y2="86.8579" gradientUnits="userSpaceOnUse">
<stop stop-color="#6966FF"/>
<stop offset="1" stop-color="#6966FF" stop-opacity="0.36"/>
</linearGradient>
<clipPath id="clip0_2352_29162">
<rect x="0.5" width="253" height="180" rx="16" fill="white"/>
</clipPath>
<clipPath id="clip1_2352_29162">
<rect width="20" height="20" fill="white" transform="translate(205 28)"/>
</clipPath>
</defs>
</svg>
